<svg width="44" height="41" viewBox="0 0 44 41" fill="none" xmlns="http://www.w3.org/2000/svg">
<path d="M42.1693 32.1413C42.1693 34.5129 41.396 36.472 39.8493 38.0187C38.4058 39.4622 36.4982 40.184 34.1267 40.184C31.7551 40.184 29.796 39.3591 28.2493 37.7093C26.7027 36.0596 25.9293 33.6364 25.9293 30.44C25.9293 26.4187 27.1667 21.7271 29.6413 16.3653C32.2191 11.0036 35.6733 5.64178 40.004 0.279998L43.252 3.21867C40.0556 7.44622 37.7356 11.2613 36.292 14.664C34.8484 17.9636 34.0236 21.1084 33.8173 24.0987H34.1267C36.4982 24.0987 38.4058 24.872 39.8493 26.4187C41.396 27.8622 42.1693 29.7698 42.1693 32.1413ZM16.1853 32.1413C16.1853 34.5129 15.4636 36.472 14.02 38.0187C12.5764 39.4622 10.6689 40.184 8.29733 40.184C5.92578 40.184 3.96667 39.3591 2.42 37.7093C0.873333 36.0596 0.0999997 33.6364 0.0999997 30.44C0.0999997 26.4187 1.33733 21.7271 3.812 16.3653C6.28667 11.0036 9.68933 5.64178 14.02 0.279998L17.4227 3.21867C14.2262 7.44622 11.8547 11.2613 10.308 14.664C8.86444 17.9636 8.03955 21.1084 7.83333 24.0987H8.29733C10.6689 24.0987 12.5764 24.872 14.02 26.4187C15.4636 27.8622 16.1853 29.7698 16.1853 32.1413Z" fill="#F3ECE4"/>
</svg>
