<svg width="121" height="19" viewBox="0 0 121 19" fill="none" xmlns="http://www.w3.org/2000/svg">
<path d="M15.9544 8.5732L12.8859 11.2511L13.8051 15.2381C13.8538 15.4465 13.8399 15.6646 13.7652 15.8652C13.6906 16.0658 13.5584 16.2399 13.3853 16.3658C13.2123 16.4917 13.0059 16.5638 12.7921 16.573C12.5782 16.5823 12.3664 16.5283 12.1831 16.4178L8.70577 14.3087L5.2359 16.4178C5.05258 16.5283 4.84078 16.5823 4.62695 16.573C4.41312 16.5638 4.20677 16.4917 4.03368 16.3658C3.8606 16.2399 3.72847 16.0658 3.6538 15.8652C3.57914 15.6646 3.56526 15.4465 3.6139 15.2381L4.53172 11.2552L1.46258 8.5732C1.30025 8.4332 1.18287 8.24838 1.12516 8.04193C1.06744 7.83548 1.07197 7.61659 1.13816 7.4127C1.20436 7.20881 1.32927 7.02901 1.49725 6.89583C1.66523 6.76266 1.86878 6.68204 2.08239 6.66409L6.12786 6.3137L7.70699 2.54719C7.78945 2.34955 7.92855 2.18073 8.10676 2.06199C8.28498 1.94324 8.49434 1.87988 8.70849 1.87988C8.92264 1.87988 9.132 1.94324 9.31022 2.06199C9.48843 2.18073 9.62753 2.34955 9.70999 2.54719L11.2939 6.3137L15.338 6.66409C15.5516 6.68204 15.7552 6.76266 15.9231 6.89583C16.0911 7.02901 16.216 7.20881 16.2822 7.4127C16.3484 7.61659 16.3529 7.83548 16.2952 8.04193C16.2375 8.24838 16.1201 8.4332 15.9578 8.5732H15.9544Z" fill="#9F2B2B"/>
<path d="M41.6385 8.5732L38.57 11.2511L39.4892 15.2381C39.5378 15.4465 39.524 15.6646 39.4493 15.8652C39.3746 16.0658 39.2425 16.2399 39.0694 16.3658C38.8963 16.4917 38.69 16.5638 38.4762 16.573C38.2623 16.5823 38.0505 16.5283 37.8672 16.4178L34.3899 14.3087L30.92 16.4178C30.7367 16.5283 30.5249 16.5823 30.311 16.573C30.0972 16.5638 29.8909 16.4917 29.7178 16.3658C29.5447 16.2399 29.4125 16.0658 29.3379 15.8652C29.2632 15.6646 29.2493 15.4465 29.298 15.2381L30.2158 11.2552L27.1467 8.5732C26.9843 8.4332 26.867 8.24838 26.8092 8.04193C26.7515 7.83548 26.756 7.61659 26.8222 7.4127C26.8884 7.20881 27.0134 7.02901 27.1813 6.89583C27.3493 6.76266 27.5529 6.68204 27.7665 6.66409L31.8119 6.3137L33.3911 2.54719C33.4735 2.34955 33.6126 2.18073 33.7908 2.06199C33.9691 1.94324 34.1784 1.87988 34.3926 1.87988C34.6067 1.87988 34.8161 1.94324 34.9943 2.06199C35.1725 2.18073 35.3116 2.34955 35.3941 2.54719L36.978 6.3137L41.0221 6.66409C41.2357 6.68204 41.4392 6.76266 41.6072 6.89583C41.7752 7.02901 41.9001 7.20881 41.9663 7.4127C42.0325 7.61659 42.037 7.83548 41.9793 8.04193C41.9216 8.24838 41.8042 8.4332 41.6419 8.5732H41.6385Z" fill="#9F2B2B"/>
<path d="M67.3221 8.5732L64.2536 11.2511L65.1728 15.2381C65.2214 15.4465 65.2076 15.6646 65.1329 15.8652C65.0582 16.0658 64.9261 16.2399 64.753 16.3658C64.5799 16.4917 64.3736 16.5638 64.1597 16.573C63.9459 16.5823 63.7341 16.5283 63.5508 16.4178L60.0734 14.3087L56.6036 16.4178C56.4203 16.5283 56.2085 16.5823 55.9946 16.573C55.7808 16.5638 55.5744 16.4917 55.4014 16.3658C55.2283 16.2399 55.0961 16.0658 55.0215 15.8652C54.9468 15.6646 54.9329 15.4465 54.9816 15.2381L55.8994 11.2552L52.8303 8.5732C52.6679 8.4332 52.5505 8.24838 52.4928 8.04193C52.4351 7.83548 52.4396 7.61659 52.5058 7.4127C52.572 7.20881 52.6969 7.02901 52.8649 6.89583C53.0329 6.76266 53.2365 6.68204 53.4501 6.66409L57.4955 6.3137L59.0747 2.54719C59.1571 2.34955 59.2962 2.18073 59.4744 2.06199C59.6527 1.94324 59.862 1.87988 60.0762 1.87988C60.2903 1.87988 60.4997 1.94324 60.6779 2.06199C60.8561 2.18073 60.9952 2.34955 61.0777 2.54719L62.6616 6.3137L66.7057 6.66409C66.9193 6.68204 67.1228 6.76266 67.2908 6.89583C67.4588 7.02901 67.5837 7.20881 67.6499 7.4127C67.7161 7.61659 67.7206 7.83548 67.6629 8.04193C67.6052 8.24838 67.4878 8.4332 67.3255 8.5732H67.3221Z" fill="#9F2B2B"/>
<path d="M93.0062 8.5732L89.9377 11.2511L90.8569 15.2381C90.9055 15.4465 90.8916 15.6646 90.817 15.8652C90.7423 16.0658 90.6102 16.2399 90.4371 16.3658C90.264 16.4917 90.0577 16.5638 89.8438 16.573C89.63 16.5823 89.4182 16.5283 89.2349 16.4178L85.7575 14.3087L82.2877 16.4178C82.1043 16.5283 81.8925 16.5823 81.6787 16.573C81.4649 16.5638 81.2585 16.4917 81.0854 16.3658C80.9124 16.2399 80.7802 16.0658 80.7056 15.8652C80.6309 15.6646 80.617 15.4465 80.6657 15.2381L81.5835 11.2552L78.5143 8.5732C78.352 8.4332 78.2346 8.24838 78.1769 8.04193C78.1192 7.83548 78.1237 7.61659 78.1899 7.4127C78.2561 7.20881 78.381 7.02901 78.549 6.89583C78.717 6.76266 78.9205 6.68204 79.1342 6.66409L83.1796 6.3137L84.7587 2.54719C84.8412 2.34955 84.9803 2.18073 85.1585 2.06199C85.3367 1.94324 85.5461 1.87988 85.7602 1.87988C85.9744 1.87988 86.1838 1.94324 86.362 2.06199C86.5402 2.18073 86.6793 2.34955 86.7617 2.54719L88.3456 6.3137L92.3897 6.66409C92.6034 6.68204 92.8069 6.76266 92.9749 6.89583C93.1429 7.02901 93.2678 7.20881 93.334 7.4127C93.4002 7.61659 93.4047 7.83548 93.347 8.04193C93.2893 8.24838 93.1719 8.4332 93.0096 8.5732H93.0062Z" fill="#9F2B2B"/>
<path d="M118.69 8.5732L115.621 11.2511L116.54 15.2381C116.589 15.4465 116.575 15.6646 116.501 15.8652C116.426 16.0658 116.294 16.2399 116.121 16.3658C115.948 16.4917 115.741 16.5638 115.527 16.573C115.314 16.5823 115.102 16.5283 114.918 16.4178L111.441 14.3087L107.971 16.4178C107.788 16.5283 107.576 16.5823 107.362 16.573C107.148 16.5638 106.942 16.4917 106.769 16.3658C106.596 16.2399 106.464 16.0658 106.389 15.8652C106.314 15.6646 106.301 15.4465 106.349 15.2381L107.267 11.2552L104.198 8.5732C104.036 8.4332 103.918 8.24838 103.861 8.04193C103.803 7.83548 103.807 7.61659 103.874 7.4127C103.94 7.20881 104.065 7.02901 104.233 6.89583C104.401 6.76266 104.604 6.68204 104.818 6.66409L108.863 6.3137L110.442 2.54719C110.525 2.34955 110.664 2.18073 110.842 2.06199C111.02 1.94324 111.23 1.87988 111.444 1.87988C111.658 1.87988 111.867 1.94324 112.046 2.06199C112.224 2.18073 112.363 2.34955 112.445 2.54719L114.029 6.3137L118.073 6.66409C118.287 6.68204 118.491 6.76266 118.658 6.89583C118.826 7.02901 118.951 7.20881 119.018 7.4127C119.084 7.61659 119.088 7.83548 119.031 8.04193C118.973 8.24838 118.855 8.4332 118.693 8.5732H118.69Z" fill="#AF9B9B"/>
</svg>
